<?xml version="1.0" encoding="UTF-8" standalone="no"?>
<svg xmlns="http://www.w3.org/2000/svg" version="1.1" height="512" width="512" enable-background="new 0 0 64 64" viewBox="0 0 512 512">
 <path style="stroke-width:8.3;fill:#8d9ba3" d="m369.7 295.8c-4.98-7.47-12.45-12.45-21.58-12.45-14.94 0-26.56 12.45-26.56 28.22v102.1c0 15.77 11.62 28.22 26.56 28.22s26.56-12.45 26.56-28.22v-102.9c0-4.15-1.66-9.96-4.98-14.94"/>
 <path style="stroke-width:8.3;fill:#3e4347" d="m348.1 443.6c14.94 0 26.56-12.45 26.56-28.22h-52.29c0 14.94 11.62 28.22 25.73 28.22"/>
 <path style="stroke-width:8.3;fill:#8d9ba3" d="m292.5 309.1c-6.64-10.79-16.6-18.26-29.05-18.26-19.09 0-34.86 18.26-34.86 41.5v131.2c0 23.24 15.77 41.5 34.86 41.5s34.86-18.26 34.86-41.5v-130.3c0-9.13-1.66-16.6-5.81-24.07"/>
 <path style="stroke-width:8.3;fill:#3e4347" d="m263.5 505c19.09 0 34.86-18.26 34.86-41.5h-70.55c0.83 23.24 16.6 41.5 35.69 41.5"/>
 <path style="stroke-width:8.3;fill:#8d9ba3" d="m184.6 309.1c-6.64-10.79-16.6-18.26-29.05-18.26-19.09 0-34.86 18.26-34.86 41.5v131.2c0 23.24 15.77 41.5 34.86 41.5s34.86-18.26 34.86-41.5v-130.3c0-9.13-1.66-16.6-5.81-24.07"/>
 <path style="stroke-width:8.3;fill:#3e4347" d="m155.6 505c19.09 0 34.86-18.26 34.86-41.5h-70.55c0.83 23.24 16.6 41.5 35.69 41.5"/>
 <path style="stroke-width:8.3;fill:#8d9ba3" d="m439.4 269.3c-5.81-9.96-14.94-16.6-24.9-16.6-16.6 0-30.71 16.6-30.71 37.35v135.3c0 20.75 14.11 37.35 30.71 37.35s30.71-16.6 30.71-37.35v-134.5c0-8.3-2.49-14.94-5.81-21.58"/>
 <path style="stroke-width:8.3;fill:#3e4347" d="m414.5 464.3c16.6 0 30.71-16.6 30.71-37.35h-61.42c0 19.92 13.28 37.35 30.71 37.35"/>
 <g style="fill:#dae5ef" transform="matrix(8.3 0 0 8.3 -9.6 -9.6)">
  <ellipse cy="34.6" cx="32.9" rx="14.5" ry="13.9"/>
  <ellipse cy="33.5" cx="16.5" rx="14.5" ry="13.9"/>
  <ellipse cy="28.2" cx="50.5" rx="9.3" ry="8.9"/>
  <ellipse cy="37.3" cx="52.7" rx="9.3" ry="8.9"/>
  <ellipse cy="39.7" cx="46.3" rx="9.3" ry="8.9"/>
  <ellipse cy="43.4" cx="17" rx="9.3" ry="8.9"/>
  <ellipse cy="43.4" cx="35.8" rx="9.3" ry="8.9"/>
  <ellipse cy="47.2" cx="26.4" rx="9.3" ry="8.9"/>
 </g>
 <path style="stroke-width:8.3;fill:#f4a19a" d="m374.7 270.9c0.83-30.71-4.15-56.44-14.94-71.38-15.8-9.1-44-14.1-78.9-13.2-0.83 30.71 4.15 56.44 14.94 71.38 16.6 9.13 43.99 13.28 78.85 13.28"/>
 <path style="stroke-width:8.3;fill:#3e4347" d="m353.9 251.8c0.83-17.43-2.49-31.54-8.3-39.84-9.13-4.98-24.9-8.3-43.99-7.47-0.83 17.43 2.49 31.54 8.3 39.84 9.13 4.98 24.9 7.47 43.99 7.47"/>
 <path style="stroke-width:8.3;fill:#f4a19a" d="m139 185.4c-34.03-0.83-62.25 3.32-78.85 13.28-10.79 14.94-15.77 39.84-14.94 70.55 34.03 0.83 62.25-3.32 78.85-13.28 9.96-14.11 14.94-39.01 14.94-70.55"/>
 <path style="stroke-width:8.3;fill:#3e4347" d="m118.2 203.7c-19.09-0.83-34.86 1.66-44.82 7.47-5.81 8.3-9.13 22.41-8.3 39.84 19.09 0.83 34.86-1.66 44.82-7.47 5.81-7.47 8.3-21.58 8.3-39.84"/>
 <path style="stroke-width:8.3;fill:#f4a19a" d="m332.4 206.2c0 88.81-54.78 161-122.8 161-68.06 0-122.8-72.21-122.8-161 0-51.46 54.78-53.12 122.8-53.12 68.06 0 122.8 1.66 122.8 53.12"/>
 <ellipse style="stroke-width:8.3;fill:#fff" rx="41.5" ry="39.01" cy="224.5" cx="143.1"/>
 <path style="stroke-width:8.3;fill:#3e4347" d="m143.1 197.9c15.77 0 29.05 12.45 29.05 27.39s-12.45 27.39-29.05 27.39c-15.77 0-29.05-12.45-29.05-27.39 0-15.77 13.28-27.39 29.05-27.39"/>
 <ellipse style="stroke-width:8.3;fill:#fff" rx="41.5" ry="39.01" cy="224.5" cx="275.9"/>
 <g style="fill:#3e4347" transform="matrix(8.3 0 0 8.3 -9.6 -9.6)">
  <ellipse cy="28.2" cx="34.4" rx="3.5" ry="3.3"/>
  <path d="m19 37.3c3.6 0.6 3.8 0.6 5.5 4"/>
  <path d="m33.8 37.3c-3.6 0.6-3.8 0.6-5.5 4"/>
 </g>
 <g style="fill:#dae5ef" transform="matrix(8.3 0 0 8.3 -9.6 -9.6)">
  <ellipse cy="16.8" cx="11.1" rx="8.8" ry="8.4"/>
  <ellipse cy="16.8" cx="41.7" rx="8.8" ry="8.4"/>
  <ellipse cy="13.5" cx="26.4" rx="12" ry="11.5"/>
 </g>
</svg>
