<?xml version="1.0" encoding="UTF-8" standalone="no"?>
<svg xmlns="http://www.w3.org/2000/svg" version="1.1" height="512" width="512" enable-background="new 0 0 64 64" viewBox="0 0 512 512">
 <path style="stroke-width:8.302;fill:#d87512" d="m126.6 360.7c-65.55 8.3-96.27-43.2-68.87-93 43.97-81.4 39.85-127 20.75-166.1-14.11-29.02-63.09-10.75-44.83 21.6 31.55 55.62 1.66 82.19-16.6 145.3-28.23 97.13 60.6 135.3 114.6 116.2l-4.981-24.07"/>
 <g style="fill:#bc600d" transform="matrix(8.302 0 0 8.302 -29.44 -9.603)">
  <path d="m12.7 43.7s0.3 1.2 0 3c0 0 2.1-0.5 1.9-2.3 0 0-0.7-0.2-1.9-0.7"/>
  <path d="m10.3 41.4s-0.1 1.4-1.2 2.9c0 0 2.1 0.6 2.8-1.1 0-0.1-0.8-0.8-1.6-1.8"/>
  <path d="m9.3 37.5s-0.8 1.2-3.1 2.1c0 0 1.6 2.3 3.6 0.9 0-0.1-0.4-1.2-0.5-3"/>
  <path d="m14 15.7s-1.7 0.9-3.8 3.5c0 0 1.9 1.5 4.5 2.2 0 0.1 0.5-3.1-0.7-5.7"/>
  <path d="m14.3 23.9s-2.8 0.5-5.4 2.7c0 0 1.6 1.7 3.6 2.6 0 0.1 1.5-3.3 1.8-5.3"/>
  <path d="m11.3 31.9s-1.5-0.2-4.5 0.6c0 0-0.1 3 2.8 2.9 0.1 0.1 0.9-1.6 1.7-3.5"/>
 </g>
 <path style="stroke-width:8.302;fill:#d87512" d="m418 297.6h-297.2c-7.472 8.302-35.7 48.98 1.66 131.2 28.23 62.26 266.5 62.26 294.7 0 36.53-82.19 8.302-122.9 0.8302-131.2"/>
 <g style="fill:#bc600d" transform="matrix(8.302 0 0 8.302 -29.44 -9.603)">
  <path d="m54.8 38.3s-0.3 5-4.7 11.3c0 0 4.4-2 5.8-5.1 0 0 0.5-3.5-1.1-6.2"/>
  <path d="m55.7 46.8s-1.1 2.2-3.6 4.6c0 0 1.8 0 2.6-0.9 0-0.1 0.8-1.7 1-3.7"/>
  <path d="m17.2 38.3s0.3 5 4.7 11.3c0 0-4.4-2-5.8-5.1 0 0-0.5-3.5 1.1-6.2"/>
  <path d="m16.3 46.8s1.1 2.2 3.6 4.6c0 0-1.8 0-2.6-0.9 0-0.1-0.8-1.7-1-3.7"/>
 </g>
 <path style="stroke-width:8.302;fill:#f29a2e" d="m157.3 289.3s0 176 24.07 201.7c16.6 18.26 72.22 19.09 88 0 15.77 19.09 71.39 17.43 88 0 24.07-25.74 24.07-201.7 24.07-201.7h-224.2"/>
 <path style="stroke-width:8.302;fill:#3e4347" d="m269.4 491.8c-5.811-21.58-5.811-107.1 0-128.7 5.811 21.58 5.811 107.1 0 128.7"/>
 <g style="fill:#bc600d" transform="matrix(8.302 0 0 8.302 -29.44 -9.603)">
  <path d="m23.4 53.2s3.4-3.6 8.6 0c0 0-5.7 2.5-7.4 5.8 0.1 0-0.9-2.3-1.2-5.8"/>
  <path d="m22.7 45.3s3.8-3.2 7.9 1.6c0 0-4.3-0.5-7.5 3.8 0 0-0.5-3.3-0.4-5.4"/>
  <path d="m48.6 53.1s-3.4-3.5-8.6 0c0 0 5.7 2.5 7.4 5.8-0.1 0.1 0.9-2.2 1.2-5.8"/>
  <path d="m49.3 45.3s-3.8-3.2-7.9 1.5c0 0 4.3-0.5 7.5 3.8 0 0.1 0.5-3.1 0.4-5.3"/>
 </g>
 <path style="stroke-width:8.302;fill:#f29a2e" d="m206.3 53.49c0 35.7-22.41 64.75-49.81 63.92-80.53-1.66-47.32-110.4-47.32-110.4 27.4 0 97.13 10.79 97.13 46.49z"/>
 <path style="stroke-width:8.302;fill:#bc600d" d="m175.6 60.13c0 19.09-11.62 34.87-26.57 34.04-43.17-0.8302-24.91-58.94-24.91-58.94 14.94 0.8302 51.47 6.641 51.47 24.91"/>
 <path style="stroke-width:8.302;fill:#f29a2e" d="m332.5 53.49c0 35.7 22.41 64.75 49.81 63.92 80.53-1.66 47.32-110.4 47.32-110.4-27.4 0-97.13 10.79-97.13 46.49z"/>
 <path style="stroke-width:8.302;fill:#bc600d" d="m363.2 60.13c0 19.09 11.62 34.87 26.57 34.04 43.17-0.8302 24.91-58.94 24.91-58.94-14.94 0.8302-51.47 6.641-51.47 24.91"/>
 <path style="stroke-width:8.302;fill:#f29a2e" d="m434.6 260.2c0 57.28-330.4 57.28-330.4 0 0-241.6 94.64-234.9 165.2-234.9s165.2-6.641 165.2 234.9"/>
 <g style="fill:#3e4347" transform="matrix(8.302 0 0 8.302 -29.44 -9.603)">
  <path d="m44 10.1c-1.8-6.7-14.3-6.8-16.1 0 3.6-3 12.6-3 16.1 0"/>
  <path d="m41.5 12.7c-1.2-4.5-9.8-4.6-11 0 2.9-2.4 8.1-2.4 11 0"/>
 </g>
 <path style="stroke-width:8.302;fill:#ffe8bb" d="m460.4 227c-1.66-58.94-36.53-88-36.53-88s21.58 215.8-105.4 111.2h-98.1c-127 104.6-105.4-111.2-105.4-111.2s-34.87 29.06-36.53 88l17.43-9.962s-18.26 39.02 1.66 86.34l18.26-21.58s4.981 44.83 53.96 68.07l2.491-19.92s37.36 29.06 97.13 29.06 97.13-29.06 97.13-29.06l2.491 19.92c48.98-23.24 53.96-68.07 53.96-68.07l18.26 21.58c19.09-47.32 1.66-86.34 1.66-86.34l17.43 9.962"/>
 <g style="fill:#3e4347" transform="matrix(8.302 0 0 8.302 -29.44 -9.603)">
  <path d="m30.1 31.3s-13 9.8-12.7-13.4c0 0-3.1 27.6 12.7 13.4"/>
  <path d="m41.9 31.3s13 9.8 12.7-13.4c0 0 3.1 27.6-12.7 13.4"/>
 </g>
 <path style="stroke-width:8.302;fill:#f5f5f5" d="m305.1 181.3c19.09 52.3 13.28 68.9 13.28 68.9l-48.15 14.11-49.81-14.11s-5.811-17.43 13.28-68.9c-83.85 139.5-4.981 157.7-4.981 157.7s-3.321 22.41 20.75 42.34v-14.94s4.981 14.11 19.92 22.41c14.94-8.302 19.92-22.41 19.92-22.41v14.94c13.28-7.472 17.43-23.24 17.43-23.24l5.811 11.62c19.09-27.4 12.45-46.49 6.641-55.62v0.8302s69.73 5.811-14.11-133.7"/>
 <g style="fill:#3e4347" transform="matrix(8.302 0 0 8.302 -29.44 -9.603)">
  <path d="m36 38.9c-0.2-0.7-0.8-4.2-0.7-6.3h1.3c-0.1 2 0.5 5.3 0.6 5.8l-1.2 0.5"/>
  <path d="m31.1 42.1c5.2-5.2 9-6.8 11-3-3.1-2.5-6.7 2-11 3"/>
 </g>
 <path style="stroke-width:8.302;fill:#947151" d="m316.7 247.7c-19.09-8.302-77.21-8.302-94.64 0-6.641 3.321 12.45 22.41 47.32 22.41s53.96-19.92 47.32-22.41"/>
 <path style="stroke-width:8.302;fill:#ffe8bb" d="m239.5 169.7c-14.11 88.83-116.2 66.41-116.2-11.62 0-41.51 0-41.51 63.92-55.62 64.75-13.28 58.11 34.04 52.3 67.24"/>
 <path style="stroke-width:8.302;fill:#3e4347" d="m229.6 174.7c-5.811 63.09-99.62 53.13-92.98-9.962 2.491-24.07 2.491-26.57 48.98-21.58 45.66 4.981 45.66 6.641 44 31.55"/>
 <path style="stroke-width:8.302;fill:#fff" d="m215.5 170.5c-4.151 38.19-70.56 32.38-65.58-5.811 1.66-14.11 1.66-14.94 34.87-12.45 32.38 3.321 32.38 4.151 30.72 18.26"/>
 <path style="stroke-width:8.302;fill:#3e4347" d="m210.5 163.1c0 9.132-6.641 15.77-14.94 15.77-8.302 0-14.94-7.472-14.94-15.77 0-8.302 6.641-14.11 14.94-14.11 8.302 0 14.94 5.811 14.94 14.11"/>
 <path style="stroke-width:8.302;fill:#ffe8bb" d="m299.3 169.7c14.11 88.83 116.2 66.41 116.2-11.62 0-41.51 0-41.51-63.92-55.62-64.75-13.28-58.11 34.04-52.3 67.24"/>
 <path style="stroke-width:8.302;fill:#3e4347" d="m309.3 174.7c5.811 63.09 99.62 53.13 92.98-9.962-2.491-24.07-2.491-26.57-48.98-21.58-46.49 4.981-46.49 6.641-44 31.55"/>
 <path style="stroke-width:8.302;fill:#fff" d="m323.4 170.5c4.151 38.19 70.56 32.38 65.58-5.811-1.66-14.11-1.66-14.94-34.87-12.45-32.38 3.321-32.38 4.151-30.72 18.26"/>
 <path style="stroke-width:8.302;fill:#3e4347" d="m353.3 163.1c0 9.132 6.641 15.77 14.94 15.77 8.302 0 14.94-7.472 14.94-15.77 0-8.302-6.641-14.11-14.94-14.11-8.302 0-14.94 5.811-14.94 14.11"/>
</svg>
