<?xml version="1.0" encoding="UTF-8" standalone="no"?>
<svg xmlns="http://www.w3.org/2000/svg" height="512" width="512" version="1.1" xmlns:xlink="http://www.w3.org/1999/xlink" viewBox="0 0 126.99999 126.99999">
 <rect style="color-rendering:auto;color:#000000;isolation:auto;mix-blend-mode:normal;paint-order:stroke fill markers;shape-rendering:auto;solid-color:#000000;image-rendering:auto;stroke-width:1.875;fill:#225684" height="127" width="127" y=".003119" x=".003119"/>
 <path style="opacity:.1;fill:#e2e2e2" d="m60.56 38.73v7.239h1.784l1.81-0.9052v-1.81l0.9046-0.9052-1.81-0.9046 0.6335-0.724c3.529 0.543 6.787 1.81 9.593 3.71l-0.2717 0.6335 0.9052 1.81-0.9052 0.9052 0.9052 1.81h0.9046v1.81h-0.9046l-0.9052 1.81h-0.9046l0.9046 0.9052 0.9052 0.9046v0.9052h-1.81l-0.9052 0.9046v1.81h1.81v0.9052l0.9052-0.9052h0.9046v-1.81h0.9052l-0.9052-0.9046h1.81l2.715 1.81-0.9052 0.9046 0.9052 0.9052 0.9052-1.81 0.9046 1.81h0.9052l0.9046 1.81h-0.9046l-0.9052-0.9046-0.9046 0.9046h-0.9052l-0.9052-0.9046-0.9046-1.81h-1.81l-0.9052 0.9052h-1.8l-0.9046 0.9052-0.9052 1.81h-0.9052l-0.9046 2.714v1.81l-0.9052 0.9046v0.9052l0.9052 0.9046 0.9046 1.81 1.81 0.9052h1.81l1.81-0.9052 0.9046 0.9052-0.9046 1.81 0.9046 0.9052v2.714h-0.9046l-0.9052 1.81v0.9052l-1.81 2.715v0.814c-3.613 2.349-7.948 3.705-12.64 3.71v1.81c13.92-0.014 25.31-11.41 25.31-25.34-0.000004-13.93-11.39-25.32-25.31-25.34zm12.64 14.47v-1.81l-1.81-1.81h-0.9052l0.9052 0.9046h-0.9052v1.81h0.9052v-0.9052h0.9052v0.9052zm-9.049-7.239 0.9046 0.9046 0.9052 0.9052 1.81-0.9052-0.9052-0.9046h-1.81zm10.86 0.9046h0.9052l0.9046 1.81 0.9052 0.9052v0.9046l-0.9052 0.9052h-0.9046l0.9046-0.9052v-1.81h-0.9046zm6.335 8.145 0.9052 0.9052h0.3617c0.0905 0.2715 0.1812 0.6332 0.2717 0.9046h-1.539zm-20.79 19.47v3.141l1.784-0.8916-0.9046-1.81z"/>
 <rect style="opacity:.1;color-rendering:auto;color:#000000;isolation:auto;mix-blend-mode:normal;paint-order:stroke fill markers;shape-rendering:auto;solid-color:#000000;image-rendering:auto;stroke-width:1.875;fill:#fff" height="49.61" width="127" y="77.25" x=".003119"/>
 <path style="color:#000000;fill:#eaeaea" d="m63.45 11.38-7.69 27.76c-2.911 0.8797-5.609 2.247-8.004 4.003l-12.53-6.757 6.757 12.53c-1.756 2.396-3.123 5.094-4.003 8.005l-27.76 7.692 27.76 7.693c0.5062 1.675 1.178 3.276 1.988 4.793l4.984-4.984c-0.9406-2.317-1.462-4.848-1.462-7.502 0-11.02 8.936-19.96 19.96-19.96s19.96 8.936 19.96 19.96-8.936 19.96-19.96 19.96c-2.043 0-4.013-0.3078-5.869-0.8779-2.184 2.185-2.848 2.85-5.133 5.136 1.067 0.4868 2.171 0.907 3.309 1.251l7.693 27.76 7.693-27.76c2.911-0.8797 5.609-2.247 8.004-4.003l12.53 6.757-6.757-12.53c1.756-2.396 3.123-5.094 4.003-8.005l27.77-7.69-27.78-7.69c-0.88-2.91-2.24-5.61-4-8.01l6.757-12.53-12.53 6.757c-2.396-1.756-5.093-3.123-8.004-4.003z"/>
 <path style="fill:#eaeaea" d="m75.9 63.96c-0.1397-1.832-1.758-2.188-3.057-0.8891l-4.536 4.538c-1.053 1.061-2.78 1.058-3.835 0l-2.932-2.935c-1.064-1.07-1.061-2.791-0.0032-3.853l4.692-4.686c1.299-1.298 0.97-2.976-0.8537-3.193-3.527-0.4213-7.204 0.7195-9.913 3.426-2.064 2.066-3.215 4.701-3.459 7.401-0.09752 1.091-0.0465 2.192 0.1496 3.273l-25.18 25.18c-1.329 1.33-2.064 3.096-2.064 4.978 0 1.877 0.7339 3.64 2.06 4.969 2.743 2.741 7.204 2.741 9.951 0 0 0 18.1-18.1 25.42-25.44 1.152 0.1574 2.319 0.1464 3.466-0.0354 2.424-0.3792 4.753-1.489 6.623-3.357 2.574-2.574 3.728-6.02 3.47-9.381zm-41.57 36.04c-1.439 1.431-3.753 1.431-5.188-0.004-1.428-1.424-1.431-3.751 0.0032-5.179 1.431-1.428 3.747-1.424 5.18 0 1.428 1.428 1.428 3.753 0.0046 5.182z"/>
</svg>
