<?xml version="1.0" encoding="UTF-8" standalone="no"?>
<svg xmlns="http://www.w3.org/2000/svg" xmlns:osb="http://www.openswatchbook.org/uri/2009/osb" height="600" width="2500" version="1.1" xmlns:xlink="http://www.w3.org/1999/xlink" viewBox="0 0 661.45833 158.75">
 <defs>
  <clipPath id="a" clipPathUnits="userSpaceOnUse">
   <path d="m0 595.3h841.9v-595.3h-841.9z"/>
  </clipPath>
 </defs>
 <g transform="translate(0 -138.3)">
  <path style="color:#000000;stroke:#ccc;stroke-width:1.058;display:none;fill:#fff" d="m345.4 157.4c-2.075 0-3.85 1.331-4.583 3.225-0.0161-0.00018-0.032 0-0.0482 0-1.875 0-3.395 1.588-3.395 3.548 0 1.959 1.52 3.548 3.395 3.548h8.951c1.364 0 2.469-1.155 2.469-2.58 0-1.202-0.7869-2.213-1.852-2.499 0.00027-0.0272 0-0.0533 0-0.0806 0-2.85-2.211-5.159-4.94-5.159z"/>
  <path style="color:#000000;stroke:#ccc;stroke-width:1.058;display:none;fill:none" d="m477 216.3c-1.68 0-3.117 1.077-3.709 2.611-0.0131-0.00016-0.0259 0-0.039 0-1.518 0-2.749 1.286-2.749 2.871 0 1.586 1.231 2.871 2.749 2.871h7.247c1.104 0 1.999-0.935 1.999-2.089 0-0.9731-0.6371-1.791-1.499-2.023 0.00026-0.022 0-0.0432 0-0.0653 0-2.307-1.79-4.178-3.998-4.178z"/>
  <g transform="matrix(.7988 0 0 .7988 -410.6 262.3)">
   <path d="m2891 314.6c-125.6 0-158.7 15.38-165.5 112.3v258.3c6.839 96.92 39.95 112.3 165.5 112.3h181c126.4 0 159.1-15.6 165.6-114.2v-254.4c-6.539-98.64-39.25-114.2-165.6-114.2z" style="stroke-width:16;fill:#494949" transform="matrix(.2646 0 0 .2646 0 -203)"/>
   <path d="m3122 315.9-393.6 393.7c11.02 75.28 48.74 88.01 163 88.01h181c126.4 0 159.1-15.6 165.6-114.2v-254.5c-5.582-84.22-30.25-107.9-116-113z" style="stroke-width:16;fill:#4f4f4f" transform="matrix(.2646 0 0 .2646 0 -203)"/>
   <path style="stroke-width:3.372;fill:#d1d1d1" d="m756.8-92.2c-4.414-0.002-8.029 3.628-8.029 8.045v49.85c0 4.414 3.611 8.029 8.029 8.029h64.23c4.414 0 8.029-3.611 8.029-8.029v-43.41c0-4.414-36.89-8.067-36.89-8.067l-6.517-6.403z"/>
   <path style="stroke-width:3.372;fill:#f2f2f2" d="m821.1-85.8c4.414 0.0002 8.029 3.613 8.029 8.031v49.85c0 4.414-3.611 8.029-8.029 8.029h-64.24c-4.414 0-8.029-3.611-8.029-8.029v-42.89c0-4.414 3.612-8.101 8.029-8.029h28.94l6.441-6.97z"/>
  </g>
  <g transform="matrix(.7988 0 0 .7988 -146.3 269.3)">
   <path style="color:#000000;fill:#808080" d="m113.9 179.1c-0.5248 0.303-8.746-4.444-8.746-5.05s8.222-5.353 8.746-5.05c0.5248 0.303 0.5248 9.797 0 10.1z" transform="matrix(0 -5.972 6.063 0 -825.3 590.6)"/>
   <path d="m220.1-115.9v39.8h20.47v-39.8z" style="color:#000000;text-indent:0;text-decoration-line:none;text-transform:none;fill:#808080"/>
   <path style="color:#000000;fill:#808080" d="m205.6-30.6c-8.597 0.1166-9.452 1.066-9.452 8.528 0 8.528 1.137 8.528 13.65 8.528h40.94c12.51 0 13.65 0 13.65-8.528s-1.137-8.528-13.65-8.528h-40.94c-1.564 0-2.965-0.01672-4.193 0zm48.26 5.686h0.5686c3.923 0 4.264-0.000011 4.264 2.843s-0.3411 2.843-4.264 2.843h-0.5686c-3.923 0-4.264-0.000011-4.264-2.843s0.341-2.843 4.264-2.843z"/>
  </g>
  <g transform="matrix(.9217 0 0 -.9217 -210.1 496.6)">
   <g transform="matrix(.5472 0 0 .5455 172.2 121.2)">
    <g clip-path="url(#a)">
     <g transform="translate(358.8 350.7)">
      <path d="m0.08234-0.04708c-3.869 6.84-8.238 13.89-13.11 21.14-4.866 7.249-10.09 14.38-15.66 21.4-1.494 1.88-2.988 3.706-4.486 5.486v-20.35c3.056-4.022 6.049-8.184 8.972-12.5 3.403-5.03 6.597-10.17 9.589-15.44 3-5.262 6.673-12.69 9.019-17.72-2.346-5.026-6.017-12.45-9.007-17.72-2.991-5.262-6.185-10.41-9.589-15.44-2.923-4.322-5.917-8.484-8.972-12.51v-20.33c1.498 1.78 2.992 3.607 4.486 5.486 5.572 7.017 10.79 14.15 15.66 21.4 4.869 7.252 9.238 14.29 13.11 21.14 3.862 6.84 6.914 12.83 9.141 17.97-2.227 5.15-5.279 11.14-9.149 17.98" style="fill:#7f8183"/>
     </g>
    </g>
   </g>
  </g>
  <g transform="matrix(.7988 0 0 .7988 -33.3 115.7)">
   <path style="color-rendering:auto;color:#000000;isolation:auto;mix-blend-mode:normal;shape-rendering:auto;solid-color:#000000;image-rendering:auto;fill:#3f3f3f" d="m765 63.67c-33.22 0-41.98 4.069-43.79 29.71v68.34c1.81 25.64 10.57 29.71 43.79 29.71h47.88c33.22 0 41.99-4.069 43.79-29.71v-68.32c-1.8-25.64-10.6-29.71-43.8-29.71z"/>
   <path d="m781.4 87.2-0.2884 0.6129c-2.639 5.592-5.149 11.33-7.638 17.08-2.488 5.742-5.075 11.92-7.638 18.27-0.7141 1.822-1.44 3.72-2.161 5.585h16.25c1.317-3.476 2.612-6.851 3.818-10.02 1.858-4.717 3.51-8.535 5.008-12.07 1.433 3.414 2.884 7.062 4.719 11.78 1.258 3.237 2.542 6.729 3.856 10.3h16.61c-0.7605-1.867-1.534-3.764-2.269-5.585-2.488-6.347-4.824-12.52-7.313-18.27-2.488-5.742-5.034-11.48-7.674-17.08l-0.2884-0.6129zm-27 45c-5.109 0-9.222 4.114-9.222 9.224 0 5.109 4.113 9.222 9.222 9.222h69.17c5.109 0 9.222-4.113 9.222-9.222s-4.113-9.224-9.222-9.224zm0 4.611h40.35c2.555 0 4.611 2.058 4.611 4.613s-2.056 4.611-4.611 4.611h-40.4c-2.555 0-4.611-2.056-4.611-4.611s2.056-4.613 4.611-4.613zm-0.1422 17.33c-1.381 3.927-2.802 8.009-4.288 12.25l-0.5769 1.476h17.04l3.529-9.727c0.4837-1.325 0.9801-2.658 1.442-3.998h-16.9c-0.0482 0-0.0941 0.00026-0.1422 0zm51.62 0c0.4566 1.358 0.9183 2.695 1.406 3.998 1.125 3.005 2.193 6.069 3.243 9.15l0.2504 0.5768h17.98l-0.6109-1.476c-1.489-4.246-2.959-8.326-4.397-12.25-0.0601 0.00079-0.118 0-0.1783 0z" style="enable-background:new;fill:#f7f7f7"/>
  </g>
  <path d="m396.1 168.3c-3.415 0-6.185 2.784-6.185 6.218v6.301h50.31v-6.301c-0.002-3.435-2.77-6.218-6.187-6.218zm8.127 4.9c0.7742 0 1.404 0.6331 1.404 1.412 0 0.7794-0.6298 1.412-1.404 1.412s-1.404-0.6331-1.404-1.412c0-0.7794 0.6298-1.412 1.404-1.412zm4.591 0.3758h12.5c0.5701 0 1.031 0.4646 1.031 1.037 0 0.5721-0.4622 1.037-1.031 1.037h-12.5c-0.5701 0-1.031-0.4646-1.031-1.037 0-0.5721 0.4604-1.037 1.031-1.037z" style="stroke-width:1.034;fill:#808080"/>
  <path d="m389.9 182.9v77.81c0 3.434 2.77 6.218 6.185 6.218h37.94c3.415 0 6.186-2.786 6.186-6.218v-77.81zm25.89 19.88v14.29h13.92v1.464h-13.92v13.92h-1.465v-13.92h-13.92v-1.464h13.92v-13.92zm-0.7329 51.5c2.441 0 4.428 1.997 4.428 4.45s-1.987 4.45-4.428 4.45-4.428-1.997-4.428-4.45 1.987-4.45 4.428-4.45z" style="stroke-width:1.034;fill:#808080"/>
  <g transform="matrix(.9217 0 0 -.9217 167.2 496.6)">
   <g transform="matrix(.5472 0 0 .5455 172.2 121.2)">
    <g clip-path="url(#a)">
     <g transform="translate(358.8 350.7)">
      <path style="fill:#7f8183" d="m0.08234-0.04708c-3.869 6.84-8.238 13.89-13.11 21.14-4.866 7.249-10.09 14.38-15.66 21.4-1.494 1.88-2.988 3.706-4.486 5.486v-20.35c3.056-4.022 6.049-8.184 8.972-12.5 3.403-5.03 6.597-10.17 9.589-15.44 3-5.262 6.673-12.69 9.019-17.72-2.346-5.026-6.017-12.45-9.007-17.72-2.991-5.262-6.185-10.41-9.589-15.44-2.923-4.322-5.917-8.484-8.972-12.51v-20.33c1.498 1.78 2.992 3.607 4.486 5.486 5.572 7.017 10.79 14.15 15.66 21.4 4.869 7.252 9.238 14.29 13.11 21.14 3.862 6.84 6.914 12.83 9.141 17.97-2.227 5.15-5.279 11.14-9.149 17.98"/>
     </g>
    </g>
   </g>
  </g>
 </g>
</svg>
