<?xml version="1.0" encoding="UTF-8" standalone="no"?>
<svg
   xmlns:dc="http://purl.org/dc/elements/1.1/"
   xmlns:cc="http://creativecommons.org/ns#"
   xmlns:rdf="http://www.w3.org/1999/02/22-rdf-syntax-ns#"
   xmlns:svg="http://www.w3.org/2000/svg"
   xmlns="http://www.w3.org/2000/svg"
   height="512"
   width="512"
   id="svg34"
   version="1.1"
   enable-background="new 0 0 64 64"
   viewBox="0 0 512 512">
  <metadata
     id="metadata40">
    <rdf:RDF>
      <cc:Work
         rdf:about="">
        <dc:format>image/svg+xml</dc:format>
        <dc:type
           rdf:resource="http://purl.org/dc/dcmitype/StillImage" />
        <dc:title></dc:title>
      </cc:Work>
    </rdf:RDF>
  </metadata>
  <defs
     id="defs38" />
  <g
     transform="matrix(7.9738715,0,0,7.9738715,0.836112,0.836112)"
     style="fill:#e08828"
     id="g6">
    <path
       id="path2"
       d="m 26.3,60.5 c -0.8,0 -2.6,0.7 -3.2,0.1 -0.8,-0.8 0,-4.6 0,-4.6 h -2.3 c 0,0 0.8,3.8 0,4.6 -0.6,0.5 -2.4,-0.1 -3.2,-0.1 -2,0 -3.7,1.5 -3.7,1.5 h 16 c 0.1,0 -1.5,-1.5 -3.6,-1.5" />
    <path
       id="path4"
       d="m 46.3,60.5 c -0.8,0 -2.6,0.7 -3.2,0.1 -0.8,-0.8 0,-4.6 0,-4.6 h -2.3 c 0,0 0.8,3.8 0,4.6 -0.6,0.5 -2.4,-0.1 -3.2,-0.1 -2,0 -3.7,1.5 -3.7,1.5 h 16 c 0.1,0 -1.5,-1.5 -3.6,-1.5" />
  </g>
  <g
     transform="matrix(7.9738715,0,0,7.9738715,0.836112,0.836112)"
     style="fill:#3e4347"
     id="g14">
    <path
       id="path8"
       d="M 10.4,27 C -0.4,33.7 1.7,43 3.3,41.9 20,29.7 24.2,18.5 10.4,27 Z" />
    <path
       id="path10"
       d="M 53.6,27 C 39.8,18.5 44,29.7 60.7,41.9 62.3,43 64.4,33.7 53.6,27" />
    <path
       id="path12"
       d="M 48,17.5 C 48,8.9 40.8,2 32,2 23.2,2 16,8.9 16,17.5 16,29.1 12,33 12,40.7 12,51.3 21,60 32,60 43,60 52,51.3 52,40.7 52,33 48,29.1 48,17.5" />
  </g>
  <path
     style="fill:#ffffff;stroke-width:7.97387171"
     id="path16"
     d="m 351.68646,150.7449 c 0,-98.87601 -80.53611,-79.738719 -80.53611,-5.58171 h -29.50332 c -0.79739,-74.157009 -81.33349,-93.2943 -81.33349,5.58171 0,77.34655 -31.89549,125.18978 -31.89549,176.22256 0,92.49691 61.39881,136.3532 127.58195,136.3532 66.18313,0 127.58194,-44.65368 127.58194,-136.3532 0,-51.03278 -31.89548,-98.87601 -31.89548,-176.22256" />
  <g
     transform="matrix(7.9738715,0,0,7.9738715,0.836112,0.836112)"
     style="fill:#3e4347"
     id="g22">
    <path
       id="path18"
       d="m 41,17 c 0,1.7 -0.9,3 -2,3 -1.1,0 -2,-1.3 -2,-3 0,-1.7 0.9,-3 2,-3 1.1,0 2,1.3 2,3" />
    <path
       id="path20"
       d="m 27,17 c 0,1.7 -0.9,3 -2,3 -1.1,0 -2,-1.3 -2,-3 0,-1.7 0.9,-3 2,-3 1.1,0 2,1.3 2,3" />
  </g>
  <path
     style="fill:#e08828;stroke-width:7.97387171"
     id="path24"
     d="m 224.10451,176.26128 h 63.79097 c 0,19.93468 -14.35296,36.67981 -31.89548,36.67981 -17.54252,0 -31.89549,-15.94774 -31.89549,-36.67981" />
  <path
     style="fill:#f29a2e;stroke-width:7.97387171"
     id="path26"
     d="M 295.86936,178.65345 256,188.22209 216.13064,178.65345 c 0,-25.51639 17.54252,-45.45107 39.86936,-45.45107 22.32684,0 39.86936,20.73206 39.86936,45.45107" />
  <g
     transform="matrix(7.9738715,0,0,7.9738715,0.836112,0.836112)"
     style="fill:#3e4347"
     id="g32">
    <path
       id="path28"
       d="m 33.7,17.8 c 0.3,0.3 0.4,0.7 0.3,0.9 -0.1,0.2 -0.5,0 -0.8,-0.3 -0.3,-0.3 -0.4,-0.7 -0.3,-0.9 0.2,-0.1 0.6,0 0.8,0.3" />
    <path
       id="path30"
       d="m 30.3,17.8 c -0.3,0.3 -0.4,0.7 -0.3,0.9 0.1,0.2 0.5,0 0.8,-0.3 0.3,-0.3 0.4,-0.7 0.3,-0.9 -0.2,-0.1 -0.6,0 -0.8,0.3" />
  </g>
</svg>
